<?xml version="1.0" encoding="UTF-8"?>
<svg version="1.1" xmlns="http://www.w3.org/2000/svg" width="512" height="512">
<path d="M0 0 C3 0 6 0 9 0 C10.2684375 -0.061875 10.2684375 -0.061875 11.5625 -0.125 C14 0 14 0 16 2 C16.66 1.34 17.32 0.68 18 0 C20.84155273 -0.22705078 20.84155273 -0.22705078 24.43359375 -0.1953125 C25.72201172 -0.18886719 27.01042969 -0.18242188 28.33789062 -0.17578125 C29.70442994 -0.1590862 31.0709664 -0.14215653 32.4375 -0.125 C33.80012376 -0.11496762 35.16275452 -0.10584222 36.52539062 -0.09765625 C39.02664662 -0.08015621 41.52787946 -0.05857235 44.02905273 -0.03173828 C46.01928304 -0.01047688 48.00965613 0 50 0 C82 0 114 0 146 0 C146.33 0.99 146.66 1.98 147 3 C147.33 2.01 147.66 1.02 148 0 C192.33333333 0 236.66666667 0 281 0 C281.33 0.66 281.66 1.32 282 2 C281.34 2.99 280.68 3.98 280 5 C279.34 5 278.68 5 278 5 C277.34 6.65 276.68 8.3 276 10 C275.01 10 274.02 10 273 10 C273 9.34 273 8.68 273 8 C271.515 8.495 271.515 8.495 270 9 C270.99 9.99 271.98 10.98 273 12 C271.71937515 13.7074998 270.38232443 15.37373596 269 17 C268.34 17 267.68 17 267 17 C266.87625 17.639375 266.7525 18.27875 266.625 18.9375 C266.315625 19.9584375 266.315625 19.9584375 266 21 C265.34 21.33 264.68 21.66 264 22 C263.505 22.845625 263.01 23.69125 262.5 24.5625 C261.7575 25.7690625 261.7575 25.7690625 261 27 C260.34 27 259.68 27 259 27 C259 27.66 259 28.32 259 29 C258.01 29 257.02 29 256 29 C255.67 30.65 255.34 32.3 255 34 C254.34 34 253.68 34 253 34 C252.67 34.99 252.34 35.98 252 37 C251.34 37.33 250.68 37.66 250 38 C249.67 38.99 249.34 39.98 249 41 C248.01 41 247.02 41 246 41 C246 41.66 246 42.32 246 43 C222.76595745 45.38297872 222.76595745 45.38297872 218 43 C217.39422623 43.30469208 216.78845245 43.60938416 216.1643219 43.92330933 C213.68389791 45.1572521 212.12510522 45.24235538 209.37084961 45.22705078 C208.45988022 45.22689972 207.54891083 45.22674866 206.6103363 45.22659302 C205.14612999 45.21110916 205.14612999 45.21110916 203.65234375 45.1953125 C202.13997887 45.19106766 202.13997887 45.19106766 200.59706116 45.18673706 C197.37708631 45.17555102 194.15739051 45.15046507 190.9375 45.125 C188.76497801 45.11496675 186.59245162 45.1058415 184.41992188 45.09765625 C179.63992935 45.07799169 174.86008036 45.0495707 170.08018494 45.01345825 C168.38681946 45.00250262 166.69340092 45 165 45 C162.66666667 45 160.33333333 45 158 45 C157.67 44.34 157.34 43.68 157 43 C156.67 43.66 156.34 44.32 156 45 C142.33333333 45 128.66666667 45 115 45 C113.45963341 45.01145188 111.91926907 45.02320842 110.37890625 45.03515625 C97.54901207 45.10653878 84.80567954 44.78545241 72 44 C71.67 43.34 71.34 42.68 71 42 C71 42.66 71 43.32 71 44 C66.71 44 62.42 44 58 44 C58 45.98 58 47.96 58 50 C58 65.33333333 58 80.66666667 58 96 C57.34 96.33 56.68 96.66 56 97 C56.66 97.33 57.32 97.66 58 98 C58 101.3 58 104.6 58 108 C57.34 108 56.68 108 56 108 C56 108.66 56 109.32 56 110 C56.66 110 57.32 110 58 110 C58 122.54 58 135.08 58 148 C57.34 148.33 56.68 148.66 56 149 C56.66 149.33 57.32 149.66 58 150 C58 157.26 58 164.52 58 172 C55.54795018 173.22602491 53.98278317 173.09929239 51.24609375 173.0625 C50.30958984 173.05476562 49.37308594 173.04703125 48.40820312 173.0390625 C47.42787109 173.02617187 46.44753906 173.01328125 45.4375 173 C43.49875227 172.9746071 41.55994146 172.95353458 39.62109375 172.9375 C38.32836548 172.92009766 38.32836548 172.92009766 37.00952148 172.90234375 C35.00167943 172.77433701 35.00167943 172.77433701 34 174 C41.92 174 49.84 174 58 174 C58.04587844 178.23610959 58.08571186 182.47135957 58.10986328 186.70751953 C58.11992963 188.14895547 58.1335838 189.59037095 58.15087891 191.03173828 C58.17510012 193.10193934 58.18647641 195.17187076 58.1953125 197.2421875 C58.20578613 198.4885498 58.21625977 199.73491211 58.22705078 201.01904297 C58 204 58 204 56 206 C52.375 206.125 52.375 206.125 49 206 C51.97 206.33 54.94 206.66 58 207 C58 212.33333333 58 217.66666667 58 223 C58.01160156 223.68835938 58.02320313 224.37671875 58.03515625 225.0859375 C58.04869141 226.21902344 58.04869141 226.21902344 58.0625 227.375 C58.07410156 228.12523437 58.08570313 228.87546875 58.09765625 229.6484375 C58 232 58 232 57.49609375 234.25390625 C56.81450538 238.02679305 56.94063066 241.74528565 57 245.5625 C57.05710639 252.29391538 56.90011124 258.96820386 56.5 265.6875 C55.83101173 277.12226511 55.9036432 288.54984791 56 300 C54.90429688 299.83886719 53.80859375 299.67773438 52.6796875 299.51171875 C47.49415048 298.86609768 42.34489609 298.81613503 37.125 298.8125 C36.17625 298.80025391 35.2275 298.78800781 34.25 298.77539062 C32.89261719 298.77249023 32.89261719 298.77249023 31.5078125 298.76953125 C30.68941895 298.76542236 29.87102539 298.76131348 29.02783203 298.75708008 C26.77263284 298.81537912 26.77263284 298.81537912 25 301 C22.65234375 301.23046875 22.65234375 301.23046875 19.9375 301.1875 C19.03902344 301.18105469 18.14054688 301.17460937 17.21484375 301.16796875 C15 301 15 301 14 300 C13.9016279 298.66956375 13.86921408 297.33406656 13.8671875 296 C13.86589844 295.195625 13.86460937 294.39125 13.86328125 293.5625 C13.86714844 292.716875 13.87101563 291.87125 13.875 291 C13.87113281 290.154375 13.86726562 289.30875 13.86328125 288.4375 C13.86521484 287.2309375 13.86521484 287.2309375 13.8671875 286 C13.86831543 285.2575 13.86944336 284.515 13.87060547 283.75 C14 282 14 282 15 281 C16.66014616 280.63557767 18.32706064 280.30027117 20 280 C18.35 280 16.7 280 15 280 C14.96241577 278.89712646 14.96241577 278.89712646 14.92407227 277.77197266 C14.8068955 274.38952308 14.68472877 271.00727064 14.5625 267.625 C14.52318359 266.46871094 14.48386719 265.31242187 14.44335938 264.12109375 C14.19577173 257.37909185 13.78053875 250.70209838 13 244 C14.32 243.34 15.64 242.68 17 242 C15.68 241.34 14.36 240.68 13 240 C13 196 13 196 13.5625 192.75 C14.15318612 189.08634754 14.15318612 189.08634754 13.53344727 185.79394531 C12.95217336 181.65985083 12.87337149 177.7115313 12.90234375 173.546875 C12.90446617 172.37381805 12.90446617 172.37381805 12.90663147 171.17706299 C12.91218347 168.70133477 12.92471628 166.22570036 12.9375 163.75 C12.94252217 162.07291799 12.94708382 160.39583454 12.95117188 158.71875 C12.95931326 155.65720774 12.96997229 152.59570002 12.98413086 149.53417969 C12.99982345 146.03931945 12.99202768 142.55310729 12.9296875 139.05859375 C12.91111296 137.51823329 12.8928964 135.97786849 12.875 134.4375 C12.85824219 133.65697266 12.84148437 132.87644531 12.82421875 132.07226562 C12.80674799 130.04740454 12.89629338 128.02227906 13 126 C13.66 125.34 14.32 124.68 15 124 C14.34 123.67 13.68 123.34 13 123 C13 110.66666667 13 98.33333333 13 86 C16.20015856 84.93328048 17.88544294 85.05154528 21.1875 85.4375 C22.08855469 85.53933594 22.98960937 85.64117187 23.91796875 85.74609375 C24.94857422 85.87177734 24.94857422 85.87177734 26 86 C26 85.34 26 84.68 26 84 C21.71 84 17.42 84 13 84 C13 71.33333333 13 58.66666667 13 46 C9.29369058 43.63828237 6.07868418 43.75823577 1.75292969 43.77294922 C1.03058136 43.77265717 0.30823303 43.77236511 -0.43600464 43.77206421 C-2.81683483 43.77345438 -5.19734967 43.78900066 -7.578125 43.8046875 C-9.23150461 43.80841875 -10.88488643 43.81126519 -12.53826904 43.81326294 C-16.88499074 43.82089062 -21.23157829 43.84053167 -25.57824707 43.8626709 C-30.01568792 43.88314796 -34.4531505 43.89226864 -38.890625 43.90234375 C-47.59381149 43.92377839 -56.29688904 43.95790388 -65 44 C-65.33 43.34 -65.66 42.68 -66 42 C-66.33 42.66 -66.66 43.32 -67 44 C-74.92 44 -82.84 44 -91 44 C-91 40.37 -91 36.74 -91 33 C-91.33 36.63 -91.66 40.26 -92 44 C-95.63 44 -99.26 44 -103 44 C-103.8118274 40.75269038 -104.09519671 39.06288512 -103.87890625 35.890625 C-103.80639648 34.75947266 -103.80639648 34.75947266 -103.73242188 33.60546875 C-103.67634766 32.82816406 -103.62027344 32.05085938 -103.5625 31.25 C-103.51029297 30.45722656 -103.45808594 29.66445312 -103.40429688 28.84765625 C-103.27510676 26.89806003 -103.13830035 24.94897114 -103 23 C-104.31226692 24.0820921 -104.31226692 24.0820921 -104.0625 26.6953125 C-104.041875 27.82710937 -104.02125 28.95890625 -104 30.125 C-103.95805558 34.89093522 -104.12938863 39.32046388 -105 44 C-110.56220441 44.81982605 -115.48452632 45.26396272 -121 44 C-121.33 43.34 -121.66 42.68 -122 42 C-122 42.66 -122 43.32 -122 44 C-131.07505088 44.13063596 -140.15010503 44.26104142 -149.22516346 44.39115143 C-153.43892898 44.45157187 -157.65269332 44.51207215 -161.86645508 44.57275391 C-165.93184331 44.63129604 -169.99723448 44.68962973 -174.06262779 44.74781799 C-175.61478469 44.77007094 -177.16694051 44.79239939 -178.71909523 44.81480408 C-180.89060821 44.84613612 -183.06212486 44.87720134 -185.23364258 44.90820312 C-187.08896355 44.93485046 -187.08896355 44.93485046 -188.98176575 44.96203613 C-190.98772507 44.98726743 -192.993882 45 -195 45 C-195.69351563 45.02320313 -196.38703125 45.04640625 -197.1015625 45.0703125 C-205.84004444 45.25969137 -214.35535487 44.13505305 -223 43 C-223 42.01 -223 41.02 -223 40 C-222.34 40 -221.68 40 -221 40 C-221 39.34 -221 38.68 -221 38 C-220.34 38 -219.68 38 -219 38 C-218.7525 37.38125 -218.505 36.7625 -218.25 36.125 C-216.79371361 33.64931313 -215.62187494 33.04874998 -213 32 C-212.67 32.99 -212.34 33.98 -212 35 C-212.103125 33.9275 -212.20625 32.855 -212.3125 31.75 C-212 28 -212 28 -209.875 26 C-208.92625 25.34 -207.9775 24.68 -207 24 C-204.37740366 21.21263321 -201.99069383 18.21931548 -199.578125 15.25 C-196.17682927 11.08841463 -196.17682927 11.08841463 -194 10 C-193.7525 9.401875 -193.505 8.80375 -193.25 8.1875 C-191.40662665 4.96159663 -189.23795222 3.79420265 -186 2 C-183.18023864 1.60721279 -180.74778067 1.42491918 -177.93432617 1.43823242 C-177.14811386 1.42628845 -176.36190155 1.41434448 -175.55186462 1.40203857 C-172.96538037 1.36758597 -170.37966321 1.3611538 -167.79296875 1.35546875 C-165.98462878 1.33792895 -164.17630354 1.31880516 -162.36799622 1.298172 C-158.58117268 1.25890514 -154.79455947 1.23236528 -151.00756836 1.21606445 C-146.17237056 1.19515176 -141.33769308 1.15263942 -136.50272655 1.10177135 C-131.87036417 1.05391784 -127.23793407 1.01672392 -122.60546875 0.98046875 C-121.2931128 0.9689531 -121.2931128 0.9689531 -119.95424461 0.95720482 C-117.45410898 0.93725654 -114.95405022 0.9248478 -112.45385742 0.91479492 C-111.72888062 0.90813309 -111.00390381 0.90147125 -110.25695801 0.89460754 C-105.69424204 0.88632717 -101.28996872 1.25501061 -96.76920033 1.88190174 C-96.18536422 1.92087417 -95.60152811 1.95984659 -95 2 C-94.67 1.67 -94.34 1.34 -94 1 C-92.54649413 0.91323745 -91.08887541 0.89297119 -89.6328125 0.90234375 C-88.30443359 0.90717773 -88.30443359 0.90717773 -86.94921875 0.91210938 C-86.01722656 0.92048828 -85.08523437 0.92886719 -84.125 0.9375 C-83.20074219 0.94201172 -82.27648437 0.94652344 -81.32421875 0.95117188 C-79.60301449 0.95991529 -77.88181862 0.97070278 -76.16064453 0.98413086 C-74.44046795 0.99676492 -72.72022298 1 -71 1 C-64.33333333 1 -57.66666667 1 -51 1 C-50.67 5.95 -50.34 10.9 -50 16 C-50.04125 13.89625 -50.0825 11.7925 -50.125 9.625 C-50.1953125 6.0390625 -50.1953125 6.0390625 -50 3 C-47.21220121 0.21220121 -45.38197673 0.70038267 -41.5 0.6875 C-40.3346875 0.67074219 -39.169375 0.65398438 -37.96875 0.63671875 C-36.9890625 0.75660156 -36.009375 0.87648437 -35 1 C-34.01 2.485 -34.01 2.485 -33 4 C-32.67 3.34 -32.34 2.68 -32 2 C-27.7643915 1.83247504 -23.52859426 1.67190668 -19.29248047 1.51782227 C-17.85100177 1.4644041 -16.40959259 1.40907482 -14.96826172 1.35180664 C-12.89826447 1.26989003 -10.82811573 1.19481641 -8.7578125 1.12109375 C-6.88826904 1.05039673 -6.88826904 1.05039673 -4.98095703 0.97827148 C-2 1 -2 1 0 2 C0 1.34 0 0.68 0 0 Z M120 3 C121 5 121 5 121 5 Z M15 4 C16 7 16 7 16 7 Z M198 6 C199 9 199 9 199 9 Z M-189 7 C-188.67 8.65 -188.34 10.3 -188 12 C-187.67 12 -187.34 12 -187 12 C-187 10.35 -187 8.7 -187 7 C-187.66 7 -188.32 7 -189 7 Z M208 7 C208 9.64 208 12.28 208 15 C208.33 15 208.66 15 209 15 C209 12.36 209 9.72 209 7 C208.67 7 208.34 7 208 7 Z M-82 8 C-81.67 9.65 -81.34 11.3 -81 13 C-80.67 12.34 -80.34 11.68 -80 11 C-80.66 10.01 -81.32 9.02 -82 8 Z M249 9 C249 12.3 249 15.6 249 19 C249.66 18.34 250.32 17.68 251 17 C251.02375926 15.0068433 251.02375926 15.0068433 250.625 12.875 C250.41875 11.59625 250.2125 10.3175 250 9 C249.67 9 249.34 9 249 9 Z M6 10 C5.94600264 11.45792884 5.90720823 12.91642712 5.875 14.375 C5.85179687 15.18710938 5.82859375 15.99921875 5.8046875 16.8359375 C5.78629949 19.21342243 5.78629949 19.21342243 8 21 C8.16702456 16.65736138 8.12999997 13.79039366 6 10 Z M15 10 C15.33 10.99 15.66 11.98 16 13 C16 12.01 16 11.02 16 10 C15.67 10 15.34 10 15 10 Z M90 10 C91 13 91 13 91 13 Z M-164 11 C-163.67 11.66 -163.34 12.32 -163 13 C-159.535 12.505 -159.535 12.505 -156 12 C-156 11.67 -156 11.34 -156 11 C-158.64 11 -161.28 11 -164 11 Z M180.25 10.375 C178.77273438 10.54128906 178.77273438 10.54128906 177.265625 10.7109375 C176.51796875 10.80632812 175.7703125 10.90171875 175 11 C175 11.33 175 11.66 175 12 C179.95 12 184.9 12 190 12 C185.80866878 9.90433439 184.68835147 9.84662483 180.25 10.375 Z M-65 12 C-65.33 12.99 -65.66 13.98 -66 15 C-64.68 14.67 -63.36 14.34 -62 14 C-62.33 13.34 -62.66 12.68 -63 12 C-63.66 12 -64.32 12 -65 12 Z M17 12 C17 12.66 17 13.32 17 14 C17.99 13.67 18.98 13.34 20 13 C19.01 12.67 18.02 12.34 17 12 Z M256 12 C257 14 257 14 257 14 Z M42 13 C42.33 13.66 42.66 14.32 43 15 C44.65 15 46.3 15 48 15 C45.1575146 13.42726432 45.1575146 13.42726432 42 13 Z M55 14 C55 14.33 55 14.66 55 15 C66.88 15 78.76 15 91 15 C91 14.67 91 14.34 91 14 C79.12 14 67.24 14 55 14 Z M221.25 13.5 C220.26515625 13.5928125 219.2803125 13.685625 218.265625 13.78125 C217.14414062 13.88953125 217.14414062 13.88953125 216 14 C216 14.33 216 14.66 216 15 C217.93719378 15.05406122 219.87481921 15.09282025 221.8125 15.125 C222.89144531 15.14820312 223.97039062 15.17140625 225.08203125 15.1953125 C228.19402868 15.23023717 228.19402868 15.23023717 231 13 C227.68757696 13 224.54069789 13.1866002 221.25 13.5 Z M-26 15 C-26 15.33 -26 15.66 -26 16 C-20.39 16 -14.78 16 -9 16 C-9 15.67 -9 15.34 -9 15 C-14.61 15 -20.22 15 -26 15 Z M110 15 C110 16.65 110 18.3 110 20 C110.66 20 111.32 20 112 20 C112 18.35 112 16.7 112 15 C111.34 15 110.68 15 110 15 Z M147 18 C147 23.28 147 28.56 147 34 C148.32 33.67 149.64 33.34 151 33 C151 32.34 151 31.68 151 31 C150.34 31 149.68 31 149 31 C148.67 26.71 148.34 22.42 148 18 C147.67 18 147.34 18 147 18 Z M-183 19 C-182.67 19.66 -182.34 20.32 -182 21 C-181.67 20.34 -181.34 19.68 -181 19 C-181.66 19 -182.32 19 -183 19 Z M-175 19 C-174.34 19.66 -173.68 20.32 -173 21 C-172.01 20.34 -171.02 19.68 -170 19 C-171.65 19 -173.3 19 -175 19 Z M-155 21 C-156.35439668 23.70879335 -156.06501451 26.00933268 -156 29 C-155.34 29 -154.68 29 -154 29 C-154 26.36 -154 23.72 -154 21 C-154.33 21 -154.66 21 -155 21 Z M48 21 C47.67 21.99 47.34 22.98 47 24 C47.99 24 48.98 24 50 24 C49.34 23.01 48.68 22.02 48 21 Z M-144 22 C-143 25 -143 25 -143 25 Z M-87 24 C-80.73 24 -74.46 24 -68 24 C-68.33 23.34 -68.66 22.68 -69 22 C-71.24973447 21.945862 -73.49984383 21.90714509 -75.75 21.875 C-77.62945312 21.84019531 -77.62945312 21.84019531 -79.546875 21.8046875 C-83.22858236 21.78429876 -83.22858236 21.78429876 -87 24 Z M62 22 C62 22.33 62 22.66 62 23 C82.295 23.495 82.295 23.495 103 24 C102.505 23.01 102.505 23.01 102 22 C88.8 22 75.6 22 62 22 Z M233 22 C231.5216774 24.95664519 231.93967217 27.74229737 232 31 C232.66 31 233.32 31 234 31 C234 28.03 234 25.06 234 22 C233.67 22 233.34 22 233 22 Z M141 23 C142 25 142 25 142 25 Z M61 24 C61 25.65 61 27.3 61 29 C61.66 27.68 62.32 26.36 63 25 C62.34 24.67 61.68 24.34 61 24 Z M142 25 C142 27.97 142 30.94 142 34 C142.33 34 142.66 34 143 34 C143 31.03 143 28.06 143 25 C142.67 25 142.34 25 142 25 Z M-204 27 C-204 27.66 -204 28.32 -204 29 C-203.34 29 -202.68 29 -202 29 C-202 28.34 -202 27.68 -202 27 C-202.66 27 -203.32 27 -204 27 Z M-20 28 C-19.67 29.32 -19.34 30.64 -19 32 C-18.34 31.01 -17.68 30.02 -17 29 C-17.99 28.67 -18.98 28.34 -20 28 Z M49 28 C50 31 50 31 50 31 Z M130 28 C130 28.99 130 29.98 130 31 C130.66 30.67 131.32 30.34 132 30 C131.34 29.34 130.68 28.68 130 28 Z M241 28 C240.67 29.32 240.34 30.64 240 32 C241.65 32 243.3 32 245 32 C243.68 30.68 242.36 29.36 241 28 Z M-194 28 C-194.66 28.66 -195.32 29.32 -196 30 C-195.01 30 -194.02 30 -193 30 C-193.33 29.34 -193.66 28.68 -194 28 Z M41 29 C40.34 32.3 39.68 35.6 39 39 C39.99 39.33 40.98 39.66 42 40 C42 36.37 42 32.74 42 29 C41.67 29 41.34 29 41 29 Z M115 29 C115 29.99 115 30.98 115 32 C115.66 31.01 116.32 30.02 117 29 C116.34 29 115.68 29 115 29 Z M183 29 C182.67 30.32 182.34 31.64 182 33 C182.66 33 183.32 33 184 33 C183.67 31.68 183.34 30.36 183 29 Z M96 30 C96 30.33 96 30.66 96 31 C97.98 31 99.96 31 102 31 C102 30.67 102 30.34 102 30 C100.02 30 98.04 30 96 30 Z M121 30 C125 31 125 31 125 31 Z M191 30 C190.67 30.99 190.34 31.98 190 33 C190.99 33.33 191.98 33.66 193 34 C193.66 33.34 194.32 32.68 195 32 C193.68 31.34 192.36 30.68 191 30 Z M-135 31 C-135 31.33 -135 31.66 -135 32 C-130.38 32 -125.76 32 -121 32 C-121 31.67 -121 31.34 -121 31 C-125.62 31 -130.24 31 -135 31 Z M-114 32 C-112.02 32.99 -112.02 32.99 -110 34 C-109.67 32.68 -109.34 31.36 -109 30 C-110.84046388 30 -112.39629594 31.17228177 -114 32 Z M-57 31 C-57.33 32.32 -57.66 33.64 -58 35 C-57.34 35 -56.68 35 -56 35 C-56.33 33.68 -56.66 32.36 -57 31 Z M22 31 C26 32 26 32 26 32 Z M-79 32 C-79 32.33 -79 32.66 -79 33 C-75.37 33 -71.74 33 -68 33 C-68 32.67 -68 32.34 -68 32 C-71.63 32 -75.26 32 -79 32 Z M-7 32 C-7 32.66 -7 33.32 -7 34 C-6.34 33.67 -5.68 33.34 -5 33 C-5.66 32.67 -6.32 32.34 -7 32 Z M26 32 C26 35.63 26 39.26 26 43 C28.05925681 39.91111478 28.2390374 39.29064073 28.125 35.8125 C28.08375 34.554375 28.0425 33.29625 28 32 C27.34 32 26.68 32 26 32 Z M-51 33 C-51 34.98 -51 36.96 -51 39 C-50.67 39 -50.34 39 -50 39 C-50 37.02 -50 35.04 -50 33 C-50.33 33 -50.66 33 -51 33 Z M219 33 C219 34.65 219 36.3 219 38 C219.33 38 219.66 38 220 38 C220 36.35 220 34.7 220 33 C219.67 33 219.34 33 219 33 Z M-137 34 C-136 37 -136 37 -136 37 Z M-7 35 C-7 36.65 -7 38.3 -7 40 C-6.34 38.68 -5.68 37.36 -5 36 C-5.66 35.67 -6.32 35.34 -7 35 Z M172 35 C172.33 35.99 172.66 36.98 173 38 C173.66 38.33 174.32 38.66 175 39 C175.66 38.67 176.32 38.34 177 38 C177 37.34 177 36.68 177 36 C175.35 35.67 173.7 35.34 172 35 Z M-40 36 C-40 36.33 -40 36.66 -40 37 C-32.74 37 -25.48 37 -18 37 C-18 36.67 -18 36.34 -18 36 C-25.26 36 -32.52 36 -40 36 Z M183 36 C183 36.66 183 37.32 183 38 C183.66 37.67 184.32 37.34 185 37 C184.34 36.67 183.68 36.34 183 36 Z M232 36 C232.33 36.66 232.66 37.32 233 38 C233.33 37.34 233.66 36.68 234 36 C233.34 36 232.68 36 232 36 Z M175 39 C176 42 176 42 176 42 Z M126 40 C127 42 127 42 127 42 Z M31 51 C31 51.66 31 52.32 31 53 C32.65 53 34.3 53 36 53 C36 52.34 36 51.68 36 51 C34.35 51 32.7 51 31 51 Z M38 66 C42 67 42 67 42 67 Z M43 66 C43 75.9 43 85.8 43 96 C43.33 96 43.66 96 44 96 C44 86.1 44 76.2 44 66 C43.67 66 43.34 66 43 66 Z M21 76 C21 77.32 21 78.64 21 80 C21.66 79.67 22.32 79.34 23 79 C22.67 78.01 22.34 77.02 22 76 C21.67 76 21.34 76 21 76 Z M24 99 C24 99.66 24 100.32 24 101 C24.66 101 25.32 101 26 101 C26 100.34 26 99.68 26 99 C25.34 99 24.68 99 24 99 Z M35 101 C35.33 103.31 35.66 105.62 36 108 C38.35367713 108.6878236 38.35367713 108.6878236 41 109 C41.99 108.34 42.98 107.68 44 107 C41.69 107 39.38 107 37 107 C37 105.02 37 103.04 37 101 C36.34 101 35.68 101 35 101 Z M16 117 C21.445 116.505 21.445 116.505 27 116 C27 115.67 27 115.34 27 115 C25.54207116 114.94600264 24.08357288 114.90720823 22.625 114.875 C21.40683594 114.84019531 21.40683594 114.84019531 20.1640625 114.8046875 C17.78657757 114.78629949 17.78657757 114.78629949 16 117 Z M51 124 C50.01 125.485 50.01 125.485 49 127 C49.99 127 50.98 127 52 127 C51.67 126.01 51.34 125.02 51 124 Z M40 136 C40 140.62 40 145.24 40 150 C40.66 149.67 41.32 149.34 42 149 C41.67 144.71 41.34 140.42 41 136 C40.67 136 40.34 136 40 136 Z M23 141 C24 144 24 144 24 144 Z M21 159 C21 159.33 21 159.66 21 160 C21.77085937 160.06058594 22.54171875 160.12117187 23.3359375 160.18359375 C24.33882812 160.26738281 25.34171875 160.35117188 26.375 160.4375 C27.87160156 160.55931641 27.87160156 160.55931641 29.3984375 160.68359375 C32 161 32 161 34 162 C36.00800456 161.71887936 38.01014051 161.38932033 40 161 C40 160.34 40 159.68 40 159 C33.73 159 27.46 159 21 159 Z M33 164 C34 168 34 168 34 168 Z M21 189 C22.485 189.99 22.485 189.99 24 191 C24.99 190.67 25.98 190.34 27 190 C24.03 189.505 24.03 189.505 21 189 Z M29 189 C29.33 189.99 29.66 190.98 30 192 C30.66 192 31.32 192 32 192 C32.33 191.01 32.66 190.02 33 189 C31.68 189 30.36 189 29 189 Z M16 197 C16 197.33 16 197.66 16 198 C18.31 198.33 20.62 198.66 23 199 C22.67 198.34 22.34 197.68 22 197 C20.02 197 18.04 197 16 197 Z M39 210 C39 211.98 39 213.96 39 216 C39.33 216 39.66 216 40 216 C40 214.02 40 212.04 40 210 C39.67 210 39.34 210 39 210 Z M39 220 C39.33 220.66 39.66 221.32 40 222 C40.33 221.34 40.66 220.68 41 220 C40.34 220 39.68 220 39 220 Z M26 228 C26.66 228.66 27.32 229.32 28 230 C30.22128555 230.02308597 30.22128555 230.02308597 32.625 229.625 C33.44226563 229.51414062 34.25953125 229.40328125 35.1015625 229.2890625 C35.72804688 229.19367188 36.35453125 229.09828125 37 229 C37 228.67 37 228.34 37 228 C33.37 228 29.74 228 26 228 Z M29 233 C30 235 30 235 30 235 Z M43 238 C43.33 238.66 43.66 239.32 44 240 C44.33 239.34 44.66 238.68 45 238 C44.34 238 43.68 238 43 238 Z M39 247 C40 249 40 249 40 249 Z M26 258 C26 258.66 26 259.32 26 260 C25.01 260.495 25.01 260.495 24 261 C27.67410785 262.17571451 31.16929183 262.07366746 35 262 C35.33 261.34 35.66 260.68 36 260 C34.906875 260.04125 33.81375 260.0825 32.6875 260.125 C29 260 29 260 26 258 Z M43 269 C42.67 275.6 42.34 282.2 42 289 C42.66 288.67 43.32 288.34 44 288 C44 282.06 44 276.12 44 270 C45.98 270 47.96 270 50 270 C50 269.67 50 269.34 50 269 C47.69 269 45.38 269 43 269 Z M31 281 C31 281.66 31 282.32 31 283 C30.01 283.495 30.01 283.495 29 284 C30.32 284.33 31.64 284.66 33 285 C33.33 284.01 33.66 283.02 34 282 C33.01 281.67 32.02 281.34 31 281 Z M26 288 C26.33 288.66 26.66 289.32 27 290 C27.33 289.34 27.66 288.68 28 288 C27.34 288 26.68 288 26 288 Z " fill="#017374" transform="translate(223,61)"/>
<path d="M0 0 C0.86603851 0.00444122 1.73207703 0.00888245 2.62435913 0.01345825 C3.60522491 0.01360931 4.5860907 0.01376038 5.59667969 0.01391602 C6.6581723 0.02423859 7.71966492 0.03456116 8.81332397 0.04519653 C10.44048843 0.04944138 10.44048843 0.04944138 12.1005249 0.05377197 C15.57521461 0.06499325 19.04964929 0.09010141 22.52426147 0.11550903 C24.87582026 0.12553631 27.22738307 0.1346626 29.57894897 0.14285278 C35.35247392 0.16493892 41.12584948 0.19843559 46.89926147 0.24050903 C47.7176359 1.65379032 48.52872367 3.07129249 49.33676147 4.49050903 C49.78922241 5.27941528 50.24168335 6.06832153 50.70785522 6.88113403 C51.79906047 9.04207819 52.40725427 10.88597039 52.89926147 13.24050903 C53.367552 14.64002873 53.84731426 16.03574727 54.33676147 17.42800903 C55.87222588 21.97448169 56.953673 26.54010807 57.89926147 31.24050903 C58.08488647 32.14800903 58.27051147 33.05550903 58.46176147 33.99050903 C58.67832397 35.10425903 58.67832397 35.10425903 58.89926147 36.24050903 C59.08488647 37.02425903 59.27051147 37.80800903 59.46176147 38.61550903 C59.99954376 41.84220275 59.89926147 44.97480376 59.89926147 48.24050903 C60.22926147 48.57050903 60.55926147 48.90050903 60.89926147 49.24050903 C60.99763357 50.57094528 61.0300474 51.90644248 61.03207397 53.24050903 C61.03336304 54.04488403 61.0346521 54.84925903 61.03598022 55.67800903 C61.03211304 56.52363403 61.02824585 57.36925903 61.02426147 58.24050903 C61.02812866 59.08613403 61.03199585 59.93175903 61.03598022 60.80300903 C61.03404663 62.00957153 61.03404663 62.00957153 61.03207397 63.24050903 C61.03094604 63.98300903 61.02981812 64.72550903 61.02865601 65.49050903 C60.89926147 67.24050903 60.89926147 67.24050903 59.89926147 68.24050903 C59.85245509 69.65640225 59.86174704 71.07433916 59.89926147 72.49050903 C59.93163068 75.91624976 59.75424673 78.90606655 58.89926147 82.24050903 C58.58988647 83.49863403 58.28051147 84.75675903 57.96176147 86.05300903 C57.60811683 87.44897472 57.25392903 88.84480289 56.89926147 90.24050903 C56.5236603 91.74035861 56.1486367 93.24035298 55.77426147 94.74050903 C55.48551147 95.89550903 55.19676147 97.05050903 54.89926147 98.24050903 C54.23926147 98.24050903 53.57926147 98.24050903 52.89926147 98.24050903 C53.10551147 98.83863403 53.31176147 99.43675903 53.52426147 100.05300903 C53.89926147 102.24050903 53.89926147 102.24050903 51.89926147 105.24050903 C51.19761506 107.22850721 50.52553276 109.2274942 49.89926147 111.24050903 C49.23926147 111.24050903 48.57926147 111.24050903 47.89926147 111.24050903 C47.85801147 112.20988403 47.81676147 113.17925903 47.77426147 114.17800903 C47.17395491 118.58623035 44.93502341 121.58170322 42.37191772 125.12722778 C40.98740432 127.11402289 39.96435319 129.07213506 38.89926147 131.24050903 C31.38410996 143.28286026 31.38410996 143.28286026 26.89926147 148.24050903 C26.23926147 148.24050903 25.57926147 148.24050903 24.89926147 148.24050903 C24.65176147 148.85925903 24.40426147 149.47800903 24.14926147 150.11550903 C22.66185779 152.6440953 21.46248139 152.95889908 18.89926147 154.24050903 C18.19774995 155.55584314 17.53400222 156.89168495 16.89926147 158.24050903 C14.96176147 160.49050903 14.96176147 160.49050903 12.89926147 162.24050903 C11.90926147 162.24050903 10.91926147 162.24050903 9.89926147 162.24050903 C9.52801147 163.19957153 9.52801147 163.19957153 9.14926147 164.17800903 C7.89926147 166.24050903 7.89926147 166.24050903 5.83676147 166.80300903 C4.87769897 167.01957153 4.87769897 167.01957153 3.89926147 167.24050903 C3.56926147 168.23050903 3.23926147 169.22050903 2.89926147 170.24050903 C1.18441772 171.63504028 1.18441772 171.63504028 -1.03823853 173.05300903 C-1.84132446 173.56863403 -2.6444104 174.08425903 -3.47183228 174.61550903 C-7.00185766 176.79751581 -10.55457267 178.93790226 -14.13198853 181.04129028 C-16.03036209 182.09145066 -16.03036209 182.09145066 -17.10073853 183.24050903 C-18.76690968 183.28114735 -20.43461947 183.28323003 -22.10073853 183.24050903 C-22.10073853 183.90050903 -22.10073853 184.56050903 -22.10073853 185.24050903 C-24.74073853 186.23050903 -27.38073853 187.22050903 -30.10073853 188.24050903 C-29.67921509 188.72261841 -29.25769165 189.20472778 -28.82339478 189.70144653 C-28.27554321 190.33308716 -27.72769165 190.96472778 -27.16323853 191.61550903 C-26.61796509 192.24199341 -26.07269165 192.86847778 -25.51089478 193.51394653 C-24.10073853 195.24050903 -24.10073853 195.24050903 -23.10073853 197.24050903 C-22.35823853 197.67363403 -21.61573853 198.10675903 -20.85073853 198.55300903 C-17.77230103 200.44205023 -15.58256594 202.62805912 -13.10073853 205.24050903 C-12.50261353 205.79738403 -11.90448853 206.35425903 -11.28823853 206.92800903 C-10.10073853 208.24050903 -10.10073853 208.24050903 -10.10073853 210.24050903 C-9.35823853 210.48800903 -8.61573853 210.73550903 -7.85073853 210.99050903 C-4.87050766 212.34515943 -3.20154601 213.75066313 -1.10073853 216.24050903 C-1.10073853 216.90050903 -1.10073853 217.56050903 -1.10073853 218.24050903 C-0.11073853 218.24050903 0.87926147 218.24050903 1.89926147 218.24050903 C1.89926147 218.90050903 1.89926147 219.56050903 1.89926147 220.24050903 C2.88926147 220.57050903 3.87926147 220.90050903 4.89926147 221.24050903 C7.65099307 223.77499866 10.08032309 226.44131315 12.39926147 229.36550903 C14.64769624 232.25434726 14.64769624 232.25434726 17.21176147 233.61550903 C21.39610849 236.14557932 24.5258533 239.73305815 27.89926147 243.24050903 C29.99998841 245.40830962 29.99998841 245.40830962 32.96176147 247.74050903 C35.89926147 250.24050903 35.89926147 250.24050903 36.89926147 252.24050903 C37.72426147 252.71488403 38.54926147 253.18925903 39.39926147 253.67800903 C41.89926147 255.24050903 41.89926147 255.24050903 42.89926147 258.24050903 C43.44711304 258.51250122 43.9949646 258.78449341 44.55941772 259.06472778 C48.01677608 260.80206479 50.53994006 263.40961325 53.33676147 266.05300903 C53.89685913 266.57443481 54.45695679 267.0958606 55.0340271 267.63308716 C57.62468354 270.05445916 60.1640036 272.50674688 62.66488647 275.02175903 C64.81388498 277.26734229 64.81388498 277.26734229 67.21176147 278.92800903 C67.76863647 279.36113403 68.32551147 279.79425903 68.89926147 280.24050903 C68.89926147 280.90050903 68.89926147 281.56050903 68.89926147 282.24050903 C69.47676147 282.48800903 70.05426147 282.73550903 70.64926147 282.99050903 C73.21641311 284.41670439 74.86030841 286.13783869 76.89926147 288.24050903 C77.64176147 288.77675903 78.38426147 289.31300903 79.14926147 289.86550903 C79.72676147 290.31925903 80.30426147 290.77300903 80.89926147 291.24050903 C80.89926147 291.90050903 80.89926147 292.56050903 80.89926147 293.24050903 C81.55926147 293.24050903 82.21926147 293.24050903 82.89926147 293.24050903 C82.89926147 293.90050903 82.89926147 294.56050903 82.89926147 295.24050903 C83.46129272 295.48800903 84.02332397 295.73550903 84.60238647 295.99050903 C87.29018716 297.45325771 89.3633163 299.20855776 91.64926147 301.24050903 C92.44848022 301.94175903 93.24769897 302.64300903 94.07113647 303.36550903 C95.89926147 305.24050903 95.89926147 305.24050903 95.89926147 307.24050903 C96.55926147 307.24050903 97.21926147 307.24050903 97.89926147 307.24050903 C97.89926147 307.90050903 97.89926147 308.56050903 97.89926147 309.24050903 C98.73457397 309.61175903 98.73457397 309.61175903 99.58676147 309.99050903 C103.55974483 312.1380676 106.39204846 314.47968951 108.89926147 318.24050903 C109.13977051 320.72724915 109.13977051 320.72724915 109.12631226 323.72171021 C109.12616119 324.84264572 109.12601013 325.96358124 109.12585449 327.1184845 C109.11553192 328.32793228 109.10520935 329.53738007 109.09457397 330.78347778 C109.09032913 332.64157829 109.09032913 332.64157829 109.08599854 334.53721619 C109.07669333 337.8268899 109.05872939 341.11636767 109.03659058 344.40597534 C109.01611417 347.76420698 109.00699299 351.12246731 108.99691772 354.48074341 C108.97484419 361.06740876 108.9413567 367.65394287 108.89926147 374.24050903 C107.57926147 374.57050903 106.25926147 374.90050903 104.89926147 375.24050903 C104.50094116 374.7467981 104.10262085 374.25308716 103.69223022 373.74441528 C103.16242554 373.10375122 102.63262085 372.46308716 102.08676147 371.80300903 C101.56469116 371.1649231 101.04262085 370.52683716 100.50473022 369.86941528 C98.89091737 367.98568153 98.89091737 367.98568153 95.89926147 367.24050903 C95.89926147 366.58050903 95.89926147 365.92050903 95.89926147 365.24050903 C94.90926147 364.91050903 93.91926147 364.58050903 92.89926147 364.24050903 C91.74504438 363.1202395 90.59701957 361.99271068 89.48519897 360.83035278 C86.84321005 358.1818565 83.99728453 355.76272635 81.18051147 353.30300903 C78.66589855 351.02952338 76.29619982 348.63744738 73.89926147 346.24050903 C72.03400265 344.52154502 70.15888106 342.8132242 68.27426147 341.11550903 C65.41978675 338.54257154 62.6157945 335.95704206 59.89926147 333.24050903 C59.11551147 332.62175903 58.33176147 332.00300903 57.52426147 331.36550903 C54.09911798 328.59277382 50.94863227 325.72711766 48.39926147 322.11550903 C46.53881875 319.78995563 44.4671614 318.71705149 41.89926147 317.24050903 C40.08676147 315.67800903 40.08676147 315.67800903 38.89926147 314.24050903 C38.89926147 313.58050903 38.89926147 312.92050903 38.89926147 312.24050903 C37.90926147 312.24050903 36.91926147 312.24050903 35.89926147 312.24050903 C32.89926147 308.9071757 32.89926147 308.9071757 32.89926147 306.24050903 C32.06394897 306.14769653 32.06394897 306.14769653 31.21176147 306.05300903 C27.90858106 304.89243213 26.18031415 302.83837458 23.89926147 300.24050903 C23.89926147 299.58050903 23.89926147 298.92050903 23.89926147 298.24050903 C19.75832449 298.03080344 19.75832449 298.03080344 15.89926147 299.24050903 C13.94908301 299.33653504 11.99555558 299.3668168 10.04301453 299.36749268 C8.17032143 299.37172241 8.17032143 299.37172241 6.25979614 299.3760376 C4.86788926 299.37409288 3.47598252 299.37204468 2.08407593 299.36990356 C0.62358049 299.37125822 -0.83691461 299.37303852 -2.29740906 299.37521362 C-6.27805529 299.37978874 -10.25867571 299.37799585 -14.23932242 299.37483454 C-18.42195438 299.37230131 -22.60458414 299.37465209 -26.78721619 299.3762207 C-33.83468012 299.37804381 -40.8821336 299.37563682 -47.92959595 299.37088013 C-56.02031103 299.36548151 -64.11100074 299.36716718 -72.20171517 299.37270653 C-79.17615716 299.37728704 -86.15059162 299.37786304 -93.12503463 299.37526786 C-97.27679311 299.37372622 -101.4285398 299.37345123 -105.58029747 299.37680435 C-123.45183584 299.38932235 -141.24709605 299.18588135 -159.10073853 298.24050903 C-159.10073853 284.38050903 -159.10073853 270.52050903 -159.10073853 256.24050903 C-156.38185048 254.88106501 -154.26104796 255.12823828 -151.21743774 255.14285278 C-149.98210297 255.14615601 -148.74676819 255.14945923 -147.47399902 255.15286255 C-146.81151028 255.15698151 -146.14902153 255.16110046 -145.46645737 255.16534424 C-143.3889844 255.17811007 -141.31157537 255.18462515 -139.23406982 255.18948364 C-134.06864139 255.20285824 -128.90327287 255.2269353 -123.73788452 255.25088501 C-119.38170835 255.27070372 -115.02555566 255.28631511 -110.66934586 255.29644775 C-108.63324023 255.30288164 -106.59723154 255.31539532 -104.56115723 255.32815552 C-97.28524099 255.39713499 -97.28524099 255.39713499 -90.05044556 254.75637817 C-84.18211299 253.98991837 -78.32574684 254.00319965 -72.41323853 253.92410278 C-70.46586792 253.89293114 -70.46586792 253.89293114 -68.47915649 253.86112976 C-65.0532422 253.80633969 -61.62727231 253.75674342 -58.20126343 253.70828247 C-54.69504947 253.65774979 -51.18891471 253.60223077 -47.68276978 253.54714966 C-40.82216153 253.44009616 -33.96148151 253.33853743 -27.10073853 253.24050903 C-29.46955167 249.88984 -31.5614967 248.31226035 -35.10073853 246.24050903 C-37.41323853 244.17800903 -37.41323853 244.17800903 -39.10073853 242.24050903 C-39.10073853 241.58050903 -39.10073853 240.92050903 -39.10073853 240.24050903 C-39.76073853 240.24050903 -40.42073853 240.24050903 -41.10073853 240.24050903 C-41.10073853 239.58050903 -41.10073853 238.92050903 -41.10073853 238.24050903 C-42.09073853 238.24050903 -43.08073853 238.24050903 -44.10073853 238.24050903 C-44.10073853 237.58050903 -44.10073853 236.92050903 -44.10073853 236.24050903 C-44.63698853 236.03425903 -45.17323853 235.82800903 -45.72573853 235.61550903 C-49.02051861 233.70800477 -51.69437481 231.19231519 -54.10073853 228.24050903 C-54.10073853 227.58050903 -54.10073853 226.92050903 -54.10073853 226.24050903 C-54.65761353 226.19925903 -55.21448853 226.15800903 -55.78823853 226.11550903 C-58.635845 225.03803631 -59.78443074 223.34212548 -61.62026978 220.98660278 C-65.32044915 216.62253898 -70.01898393 213.1305259 -74.41323853 209.49050903 C-76.43112545 207.80111533 -78.2474689 206.09377866 -80.10073853 204.24050903 C-81.18355103 203.46707153 -81.18355103 203.46707153 -82.28823853 202.67800903 C-82.88636353 202.20363403 -83.48448853 201.72925903 -84.10073853 201.24050903 C-84.10073853 200.58050903 -84.10073853 199.92050903 -84.10073853 199.24050903 C-84.9739978 199.24574585 -85.84725708 199.25098267 -86.74697876 199.25637817 C-89.97663125 199.27338654 -93.20626098 199.28594272 -96.4359436 199.29544067 C-97.83569081 199.30047983 -99.23543273 199.3073112 -100.63516235 199.31594849 C-102.64319629 199.32803223 -104.6512681 199.3332071 -106.65933228 199.33816528 C-107.86903687 199.3434021 -109.07874146 199.34863892 -110.32510376 199.35403442 C-113.10073853 199.24050903 -113.10073853 199.24050903 -114.10073853 198.24050903 C-114.18945125 195.21073099 -114.21593203 192.20383881 -114.19839478 189.17410278 C-114.19697983 188.26547989 -114.19556488 187.35685699 -114.19410706 186.42070007 C-114.18849046 183.50643683 -114.17593517 180.59224922 -114.16323853 177.67800903 C-114.15822566 175.70730701 -114.15366239 173.7366038 -114.14956665 171.76589966 C-114.13851564 166.92407345 -114.1212399 162.08230408 -114.10073853 157.24050903 C-110.0011202 154.91790947 -107.76164222 155.47619585 -103.10073853 156.24050903 C-86.81528065 157.10034284 -67.86733876 156.96794602 -53.10073853 149.24050903 C-52.13136353 148.93113403 -51.16198853 148.62175903 -50.16323853 148.30300903 C-47.14876074 147.2571698 -44.80735198 145.90611731 -42.10073853 144.24050903 C-40.95798462 143.80738403 -40.95798462 143.80738403 -39.79214478 143.36550903 C-36.80009493 142.11484089 -34.30207332 140.53128154 -31.60073853 138.74050903 C-28.84771963 136.91547404 -26.42003104 135.35889839 -23.31948853 134.20925903 C-22.58730103 133.88957153 -21.85511353 133.56988403 -21.10073853 133.24050903 C-20.77073853 132.25050903 -20.44073853 131.26050903 -20.10073853 130.24050903 C-19.11073853 130.24050903 -18.12073853 130.24050903 -17.10073853 130.24050903 C-16.7372229 129.38005981 -16.7372229 129.38005981 -16.36636353 128.50222778 C-14.86858655 125.82564485 -13.09078672 124.14448261 -10.85073853 122.05300903 C-5.83253216 117.14739063 -2.28592906 111.88249327 1.30551147 105.89675903 C1.74894897 105.16457153 2.19238647 104.43238403 2.64926147 103.67800903 C3.03598022 103.01671997 3.42269897 102.35543091 3.82113647 101.67410278 C4.35480835 100.96447388 4.35480835 100.96447388 4.89926147 100.24050903 C5.55926147 100.24050903 6.21926147 100.24050903 6.89926147 100.24050903 C6.56926147 99.25050903 6.23926147 98.26050903 5.89926147 97.24050903 C6.88926147 96.91050903 7.87926147 96.58050903 8.89926147 96.24050903 C8.56926147 95.25050903 8.23926147 94.26050903 7.89926147 93.24050903 C8.88926147 92.91050903 9.87926147 92.58050903 10.89926147 92.24050903 C10.56926147 91.25050903 10.23926147 90.26050903 9.89926147 89.24050903 C10.50894195 87.55216311 11.18763705 85.88848139 11.89926147 84.24050903 C13.36701631 79.57822897 14.2355273 75.07628662 14.89926147 70.24050903 C15.22926147 69.58050903 15.55926147 68.92050903 15.89926147 68.24050903 C16.14023054 64.85033759 16.08446412 61.45079167 16.08676147 58.05300903 C16.09900757 57.11908325 16.11125366 56.18515747 16.12387085 55.22293091 C16.13533662 49.79197965 15.61251234 45.3868765 13.89926147 40.24050903 C13.77551147 39.10613403 13.65176147 37.97175903 13.52426147 36.80300903 C12.85755595 33.00278754 11.56107151 30.45953559 9.75473022 27.10769653 C8.67000446 24.74012159 8.57817032 22.80923831 8.89926147 20.24050903 C8.23926147 20.24050903 7.57926147 20.24050903 6.89926147 20.24050903 C6.60793335 19.6952356 6.31660522 19.14996216 6.01644897 18.58816528 C2.93646916 12.92216468 -0.44637773 7.55251802 -4.10073853 2.24050903 C-2.10073853 0.24050903 -2.10073853 0.24050903 0 0 Z " fill="#4115A3" transform="translate(396.1007385253906,107.75949096679688)"/>
<path d="M0 0 C1.23427734 -0.00386719 2.46855469 -0.00773437 3.74023438 -0.01171875 C11.13444974 -0.00398017 18.44006641 0.29573824 25.80810547 0.92285156 C28.89504593 1.12225761 31.90984253 1.10419294 35 1 C40.5971622 0.9507581 43.11869339 2.50282114 47.25 6.1875 C48.9375 8.125 48.9375 8.125 48.9375 10.125 C49.5975 10.125 50.2575 10.125 50.9375 10.125 C50.9375 10.785 50.9375 11.445 50.9375 12.125 C51.9275 12.125 52.9175 12.125 53.9375 12.125 C53.9375 13.115 53.9375 14.105 53.9375 15.125 C54.9275 15.125 55.9175 15.125 56.9375 15.125 C60.51480654 18.31557069 63.51112123 21.94625883 66.5078125 25.671875 C67.98481699 27.39325585 67.98481699 27.39325585 70.9375 28.125 C70.9375 28.785 70.9375 29.445 70.9375 30.125 C71.535625 30.393125 72.13375 30.66125 72.75 30.9375 C74.93597854 32.12417406 76.35082594 33.22099113 77.9375 35.125 C77.9375 35.785 77.9375 36.445 77.9375 37.125 C78.494375 37.33125 79.05125 37.5375 79.625 37.75 C82.78466804 39.62872154 84.59588711 42.31506453 86.9375 45.125 C88.25397119 45.82437532 89.58772151 46.49229133 90.9375 47.125 C93.6875 49.625 93.6875 49.625 95.9375 52.125 C95.9375 52.785 95.9375 53.445 95.9375 54.125 C97.5875 54.785 99.2375 55.445 100.9375 56.125 C100.9375 56.785 100.9375 57.445 100.9375 58.125 C101.5975 58.125 102.2575 58.125 102.9375 58.125 C104.12425282 59.2778456 105.30488771 60.43784735 106.44921875 61.6328125 C108.04163427 63.22940759 109.71190817 64.6738487 111.4375 66.125 C119.57455584 73.03616751 119.57455584 73.03616751 120.9375 77.125 C121.5975 77.125 122.2575 77.125 122.9375 77.125 C122.9375 77.785 122.9375 78.445 122.9375 79.125 C123.5975 79.125 124.2575 79.125 124.9375 79.125 C124.9375 79.785 124.9375 80.445 124.9375 81.125 C125.45957031 81.33253906 125.98164063 81.54007812 126.51953125 81.75390625 C129.99217257 83.72304535 132.71385272 86.35123216 135.625 89.0625 C136.21861328 89.60068359 136.81222656 90.13886719 137.42382812 90.69335938 C141.81334564 94.75253692 141.81334564 94.75253692 142.9375 98.125 C143.700625 98.41375 144.46375 98.7025 145.25 99 C148.65231645 100.42422549 149.67563161 102.2168835 151.9375 105.125 C154.52491536 107.55034012 157.23281926 109.83190111 159.9375 112.125 C164.3931042 115.90257747 168.32314513 119.51358172 171.9375 124.125 C172.783125 124.60453125 173.62875 125.0840625 174.5 125.578125 C178.34552849 129.59620926 177.72164656 133.81719467 177.75 139.1875 C177.77296143 140.27844971 177.79592285 141.36939941 177.81958008 142.4934082 C177.88479454 146.03739882 177.91183603 149.58052032 177.9375 153.125 C177.97594186 155.60678052 178.01500535 158.0885515 178.0546875 160.5703125 C178.08087984 162.98434668 178.10438932 165.39841171 178.125 167.8125 C178.13829346 168.95146729 178.15158691 170.09043457 178.1652832 171.26391602 C178.16969467 176.59898329 178.14072631 181.15250109 175.9375 186.125 C174.8319811 185.18909496 173.72814547 184.25120142 172.625 183.3125 C172.01011719 182.79042969 171.39523438 182.26835937 170.76171875 181.73046875 C167.41797722 178.7876898 167.41797722 178.7876898 165.9375 177.125 C165.9375 176.465 165.9375 175.805 165.9375 175.125 C165.2775 175.125 164.6175 175.125 163.9375 175.125 C164.2675 176.115 164.5975 177.105 164.9375 178.125 C163.81744369 181.48516893 162.56538203 182.81564913 159.9375 185.125 C159.2775 185.125 158.6175 185.125 157.9375 185.125 C157.710625 185.681875 157.48375 186.23875 157.25 186.8125 C155.56199964 189.78659588 153.47073483 191.84508865 150.9375 194.125 C150.2775 194.125 149.6175 194.125 148.9375 194.125 C148.83308594 194.71796875 148.72867188 195.3109375 148.62109375 195.921875 C147.8369359 198.44910372 146.88695476 199.5480218 145 201.375 C144.47535156 201.89578125 143.95070312 202.4165625 143.41015625 202.953125 C141.9375 204.125 141.9375 204.125 139.9375 204.125 C139.9375 204.785 139.9375 205.445 139.9375 206.125 C139.2775 206.125 138.6175 206.125 137.9375 206.125 C137.9375 206.785 137.9375 207.445 137.9375 208.125 C137.2775 208.125 136.6175 208.125 135.9375 208.125 C135.9375 209.115 135.9375 210.105 135.9375 211.125 C135.2775 211.125 134.6175 211.125 133.9375 211.125 C133.9375 211.785 133.9375 212.445 133.9375 213.125 C132.9475 213.125 131.9575 213.125 130.9375 213.125 C130.68613281 213.8675 130.43476563 214.61 130.17578125 215.375 C128.84458619 218.33134486 127.46385863 219.9068855 125.125 222.125 C124.41085938 222.81335938 123.69671875 223.50171875 122.9609375 224.2109375 C122.29320312 224.84257812 121.62546875 225.47421875 120.9375 226.125 C118.25613222 228.74401039 115.69748803 231.36253675 113.3125 234.25 C109.72473404 238.59308511 109.72473404 238.59308511 107.9375 240.125 C107.2775 240.125 106.6175 240.125 105.9375 240.125 C105.73125 240.681875 105.525 241.23875 105.3125 241.8125 C103.43377846 244.97216804 100.74743547 246.78338711 97.9375 249.125 C96.56495412 251.27480497 96.56495412 251.27480497 95.9375 253.125 C95.2775 253.125 94.6175 253.125 93.9375 253.125 C93.68097656 253.72183594 93.42445313 254.31867188 93.16015625 254.93359375 C91.82649816 257.32395218 90.51698606 258.51057981 88.375 260.1875 C85.74312347 262.25032214 85.03317461 262.83797618 83.9375 266.125 C83.2775 266.125 82.6175 266.125 81.9375 266.125 C81.6075 267.115 81.2775 268.105 80.9375 269.125 C80.2775 269.125 79.6175 269.125 78.9375 269.125 C78.9375 269.785 78.9375 270.445 78.9375 271.125 C78.009375 271.49625 78.009375 271.49625 77.0625 271.875 C74.82128639 272.9229501 74.82128639 272.9229501 74.0859375 274.953125 C72.21436288 278.49256544 69.07369437 280.59621507 66.03125 283.125 C63.9737424 285.09038039 63.09826653 286.57545923 61.9375 289.125 C59.4375 291.875 59.4375 291.875 56.9375 294.125 C56.2775 294.125 55.6175 294.125 54.9375 294.125 C54.9375 294.785 54.9375 295.445 54.9375 296.125 C54.2775 296.125 53.6175 296.125 52.9375 296.125 C52.9375 296.785 52.9375 297.445 52.9375 298.125 C52.2775 298.125 51.6175 298.125 50.9375 298.125 C50.67195313 298.70765625 50.40640625 299.2903125 50.1328125 299.890625 C45.93963745 307.72884764 38.18463323 313.96719462 31.89453125 320.125 C29.53265521 322.5387336 27.43011992 325.11337544 25.3046875 327.734375 C24.85351562 328.19328125 24.40234375 328.6521875 23.9375 329.125 C23.2775 329.125 22.6175 329.125 21.9375 329.125 C21.9375 329.785 21.9375 330.445 21.9375 331.125 C21.2775 331.125 20.6175 331.125 19.9375 331.125 C19.67453125 331.71667969 19.4115625 332.30835938 19.140625 332.91796875 C17.88372604 335.22364378 16.58981376 336.6422985 14.6875 338.4375 C12.30661985 340.73983565 10.10010284 343.06460065 8 345.625 C5.17809276 349.01128869 1.98531904 351.7660161 -1.42578125 354.546875 C-3.32207736 356.13133466 -3.32207736 356.13133466 -4.0625 359.125 C-4.7225 359.125 -5.3825 359.125 -6.0625 359.125 C-6.3925 360.115 -6.7225 361.105 -7.0625 362.125 C-9 364.3125 -9 364.3125 -11.0625 366.125 C-11.7225 366.125 -12.3825 366.125 -13.0625 366.125 C-13.32160156 366.71667969 -13.58070312 367.30835938 -13.84765625 367.91796875 C-15.14964093 370.28331069 -16.46740423 371.675917 -18.5 373.4375 C-19.09683594 373.96988281 -19.69367187 374.50226563 -20.30859375 375.05078125 C-20.88738281 375.40527344 -21.46617188 375.75976562 -22.0625 376.125 C-23.0525 375.795 -24.0425 375.465 -25.0625 375.125 C-25.20191124 367.55353682 -25.3083279 359.98220775 -25.37337303 352.40975094 C-25.40460265 348.89290262 -25.44691594 345.3769364 -25.51513672 341.8605957 C-25.59318789 337.81192879 -25.62198633 333.76417903 -25.6484375 329.71484375 C-25.67940521 328.46041977 -25.71037292 327.20599579 -25.74227905 325.91355896 C-25.74602715 316.14856243 -25.74602715 316.14856243 -22.13525391 311.92797852 C-21.12450282 310.97906421 -20.101775 310.04258575 -19.0625 309.125 C-18.19625 307.9184375 -18.19625 307.9184375 -17.3125 306.6875 C-16.9 306.171875 -16.4875 305.65625 -16.0625 305.125 C-15.4025 305.125 -14.7425 305.125 -14.0625 305.125 C-13.7325 304.135 -13.4025 303.145 -13.0625 302.125 C-11.44411281 300.41141357 -9.76578319 298.7542274 -8.0625 297.125 C-6.85151391 295.91932526 -5.64327602 294.71088524 -4.4375 293.5 C-1.0625 290.125 -1.0625 290.125 0.5859375 288.5390625 C2.04920362 287.14718723 2.04920362 287.14718723 2.9375 285.125 C3.5975 285.125 4.2575 285.125 4.9375 285.125 C5.246875 284.2896875 5.246875 284.2896875 5.5625 283.4375 C7.12008122 280.81793159 9.05599718 279.34714266 11.42578125 277.4765625 C13.7681903 275.38231565 15.24091558 272.75196942 16.9375 270.125 C18.581723 268.4361879 20.25139899 266.77200302 21.9375 265.125 C23.19240234 263.85269531 23.19240234 263.85269531 24.47265625 262.5546875 C25.30667969 261.71164062 26.14070313 260.86859375 27 260 C28.25490234 258.72769531 28.25490234 258.72769531 29.53515625 257.4296875 C31.9375 255.125 31.9375 255.125 34.1484375 253.4765625 C36.47693934 251.71747596 37.49251494 249.6380175 38.9375 247.125 C40.5 245.3125 40.5 245.3125 41.9375 244.125 C42.5975 244.125 43.2575 244.125 43.9375 244.125 C44.185 243.55265625 44.4325 242.9803125 44.6875 242.390625 C46.13066199 239.77489389 47.81966222 237.97726544 49.9375 235.875 C50.63875 235.16859375 51.34 234.4621875 52.0625 233.734375 C53.9375 232.125 53.9375 232.125 55.9375 232.125 C55.9375 231.465 55.9375 230.805 55.9375 230.125 C56.5975 229.465 57.2575 228.805 57.9375 228.125 C58.90053511 226.98311551 59.85840417 225.83686415 60.8125 224.6875 C63.00780157 222.0950045 65.20670985 220.14780752 67.9375 218.125 C68.2675 217.135 68.5975 216.145 68.9375 215.125 C69.9275 215.125 70.9175 215.125 71.9375 215.125 C71.9375 214.135 71.9375 213.145 71.9375 212.125 C74.16284597 209.5905782 76.07161374 207.54557333 79.125 206.0625 C81.09782367 205.27303636 81.09782367 205.27303636 81.83203125 203.25390625 C83.38692139 200.25950651 85.65773342 198.7329536 88.28125 196.6875 C90.11215069 194.9602352 90.87009791 193.38433442 91.9375 191.125 C94.4375 188.375 94.4375 188.375 96.9375 186.125 C97.5975 186.125 98.2575 186.125 98.9375 186.125 C99.2675 185.135 99.5975 184.145 99.9375 183.125 C101.5597454 181.41506566 103.23163425 179.75152316 104.9375 178.125 C105.659375 177.361875 106.38125 176.59875 107.125 175.8125 C108.9375 174.125 108.9375 174.125 110.9375 174.125 C111.2675 173.135 111.5975 172.145 111.9375 171.125 C114.21163187 167.85025011 116.78061178 165.35743103 119.8125 162.8125 C123.34390264 159.81934088 125.94982396 156.66537384 128.515625 152.82421875 C130.16392635 150.85440807 131.53027959 149.99641379 133.9375 149.125 C134.5975 149.455 135.2575 149.785 135.9375 150.125 C134.64572272 147.54144544 132.92325713 146.21637518 130.75 144.3125 C129.93917969 143.6009375 129.12835938 142.889375 128.29296875 142.15625 C126.39767808 140.52183682 124.49174218 138.90643308 122.5625 137.3125 C120.55700849 135.64125707 118.73705122 134.00279258 116.9375 132.125 C113.55689746 128.65049184 110.05845775 125.49993174 106.29296875 122.45703125 C105.84566406 122.01746094 105.39835938 121.57789063 104.9375 121.125 C104.9375 120.465 104.9375 119.805 104.9375 119.125 C104.380625 119.063125 103.82375 119.00125 103.25 118.9375 C99.94681958 117.7769231 98.21855267 115.72286554 95.9375 113.125 C95.9375 112.465 95.9375 111.805 95.9375 111.125 C95.215625 110.898125 94.49375 110.67125 93.75 110.4375 C89.04984255 108.24409319 86.18276324 104.42585553 82.9375 100.5 C80.52396523 97.63585643 78.21414139 95.97336181 74.9375 94.125 C71.44244098 90.89879167 68.43058642 87.38090575 65.46484375 83.67578125 C63.75612855 81.94084536 62.12905268 81.15297381 59.9375 80.125 C57.6875 78.125 57.6875 78.125 55.9375 76.125 C55.9375 75.465 55.9375 74.805 55.9375 74.125 C55.31875 74.00125 54.7 73.8775 54.0625 73.75 C51.9375 73.125 51.9375 73.125 49.9375 71.125 C49.9375 70.135 49.9375 69.145 49.9375 68.125 C49.36 68.05152344 48.7825 67.97804688 48.1875 67.90234375 C45.14446726 66.8510182 43.96442488 65.16177354 41.9375 62.6875 C39.41192179 59.61438432 37.5307925 57.79112067 33.9375 56.125 C32.6875 54 32.6875 54 31.9375 52.125 C31.2775 52.125 30.6175 52.125 29.9375 52.125 C28.76195759 50.99879605 27.59431045 49.8632512 26.46679688 48.68896484 C24.76336229 46.94691472 22.99465582 45.29578863 21.203125 43.64453125 C20.54699219 43.03802734 19.89085937 42.43152344 19.21484375 41.80664062 C17.84899453 40.54737502 16.48177783 39.28959123 15.11328125 38.03320312 C14.46230469 37.43056641 13.81132813 36.82792969 13.140625 36.20703125 C12.54926758 35.66280518 11.95791016 35.1185791 11.34863281 34.55786133 C9.9375 33.125 9.9375 33.125 8.9375 31.125 C7.9475 30.795 6.9575 30.465 5.9375 30.125 C4.25 28.75 4.25 28.75 2.9375 27.125 C2.9375 26.135 2.9375 25.145 2.9375 24.125 C2.256875 23.939375 1.57625 23.75375 0.875 23.5625 C-3.26460178 21.53673743 -5.93632925 18.45118641 -9.0625 15.125 C-10.90228058 13.22466968 -12.63437784 11.686117 -14.75 10.0625 C-15.513125 9.423125 -16.27625 8.78375 -17.0625 8.125 C-17.0625 7.465 -17.0625 6.805 -17.0625 6.125 C-17.7225 6.125 -18.3825 6.125 -19.0625 6.125 C-19.0625 5.465 -19.0625 4.805 -19.0625 4.125 C-19.7225 4.125 -20.3825 4.125 -21.0625 4.125 C-21.0625 3.135 -21.0625 2.145 -21.0625 1.125 C-14.07243753 -0.18758997 -7.09155366 -0.02174212 0 0 Z M142.9375 155.125 C143.9375 157.125 143.9375 157.125 143.9375 157.125 Z M143.9375 157.125 C144.5975 158.445 145.2575 159.765 145.9375 161.125 C145.9375 160.135 145.9375 159.145 145.9375 158.125 C145.2775 157.795 144.6175 157.465 143.9375 157.125 Z M150.9375 163.125 C151.9375 165.125 151.9375 165.125 151.9375 165.125 Z M154.9375 167.125 C155.9275 168.115 156.9175 169.105 157.9375 170.125 C157.6075 169.135 157.2775 168.145 156.9375 167.125 C156.2775 167.125 155.6175 167.125 154.9375 167.125 Z M157.9375 170.125 C157.9375 170.785 157.9375 171.445 157.9375 172.125 C158.5975 171.795 159.2575 171.465 159.9375 171.125 C159.2775 170.795 158.6175 170.465 157.9375 170.125 Z M159.9375 172.125 C160.9375 174.125 160.9375 174.125 160.9375 174.125 Z " fill="#0B657E" transform="translate(55.0625,107.875)"/>
<path d="M0 0 C1.23427734 -0.00386719 2.46855469 -0.00773437 3.74023438 -0.01171875 C11.13444974 -0.00398017 18.44006641 0.29573824 25.80810547 0.92285156 C28.89504593 1.12225761 31.90984253 1.10419294 35 1 C40.5971622 0.9507581 43.11869339 2.50282114 47.25 6.1875 C48.9375 8.125 48.9375 8.125 48.9375 10.125 C49.5975 10.125 50.2575 10.125 50.9375 10.125 C50.9375 10.785 50.9375 11.445 50.9375 12.125 C51.9275 12.125 52.9175 12.125 53.9375 12.125 C53.9375 13.115 53.9375 14.105 53.9375 15.125 C54.9275 15.125 55.9175 15.125 56.9375 15.125 C60.51480654 18.31557069 63.51112123 21.94625883 66.5078125 25.671875 C67.98481699 27.39325585 67.98481699 27.39325585 70.9375 28.125 C70.9375 28.785 70.9375 29.445 70.9375 30.125 C71.535625 30.393125 72.13375 30.66125 72.75 30.9375 C74.93597854 32.12417406 76.35082594 33.22099113 77.9375 35.125 C77.9375 35.785 77.9375 36.445 77.9375 37.125 C78.494375 37.33125 79.05125 37.5375 79.625 37.75 C82.78466804 39.62872154 84.59588711 42.31506453 86.9375 45.125 C88.25397119 45.82437532 89.58772151 46.49229133 90.9375 47.125 C93.6875 49.625 93.6875 49.625 95.9375 52.125 C95.9375 52.785 95.9375 53.445 95.9375 54.125 C97.5875 54.785 99.2375 55.445 100.9375 56.125 C100.9375 56.785 100.9375 57.445 100.9375 58.125 C101.5975 58.125 102.2575 58.125 102.9375 58.125 C104.12425282 59.2778456 105.30488771 60.43784735 106.44921875 61.6328125 C108.04163427 63.22940759 109.71190817 64.6738487 111.4375 66.125 C119.57455584 73.03616751 119.57455584 73.03616751 120.9375 77.125 C121.5975 77.125 122.2575 77.125 122.9375 77.125 C122.9375 77.785 122.9375 78.445 122.9375 79.125 C123.5975 79.125 124.2575 79.125 124.9375 79.125 C124.9375 79.785 124.9375 80.445 124.9375 81.125 C125.45957031 81.33253906 125.98164063 81.54007812 126.51953125 81.75390625 C129.99217257 83.72304535 132.71385272 86.35123216 135.625 89.0625 C136.21861328 89.60068359 136.81222656 90.13886719 137.42382812 90.69335938 C141.81334564 94.75253692 141.81334564 94.75253692 142.9375 98.125 C143.700625 98.41375 144.46375 98.7025 145.25 99 C148.65231645 100.42422549 149.67563161 102.2168835 151.9375 105.125 C154.52491536 107.55034012 157.23281926 109.83190111 159.9375 112.125 C164.3931042 115.90257747 168.32314513 119.51358172 171.9375 124.125 C172.783125 124.60453125 173.62875 125.0840625 174.5 125.578125 C178.34552849 129.59620926 177.72164656 133.81719467 177.75 139.1875 C177.77296143 140.27844971 177.79592285 141.36939941 177.81958008 142.4934082 C177.88479454 146.03739882 177.91183603 149.58052032 177.9375 153.125 C177.97594186 155.60678052 178.01500535 158.0885515 178.0546875 160.5703125 C178.08087984 162.98434668 178.10438932 165.39841171 178.125 167.8125 C178.13829346 168.95146729 178.15158691 170.09043457 178.1652832 171.26391602 C178.16969467 176.59898329 178.14072631 181.15250109 175.9375 186.125 C174.8319811 185.18909496 173.72814547 184.25120142 172.625 183.3125 C172.01011719 182.79042969 171.39523438 182.26835937 170.76171875 181.73046875 C167.41797722 178.7876898 167.41797722 178.7876898 165.9375 177.125 C165.9375 176.465 165.9375 175.805 165.9375 175.125 C164.2875 175.125 162.6375 175.125 160.9375 175.125 C160.36 173.990625 159.7825 172.85625 159.1875 171.6875 C157.69478736 168.80308355 157.69478736 168.80308355 154.875 167.5 C153.9159375 167.314375 153.9159375 167.314375 152.9375 167.125 C151.92562105 165.46551852 150.9248454 163.79919438 149.9375 162.125 C148.9475 162.125 147.9575 162.125 146.9375 162.125 C145.90736723 160.47678756 144.90635372 158.80996298 143.9375 157.125 C143.2775 157.125 142.6175 157.125 141.9375 157.125 C141.6075 156.465 141.2775 155.805 140.9375 155.125 C140.2775 155.125 139.6175 155.125 138.9375 155.125 C138.463125 154.135 137.98875 153.145 137.5 152.125 C134.64272056 147.10188241 130.34465102 143.75936933 125.9375 140.125 C125.339375 139.62613281 124.74125 139.12726563 124.125 138.61328125 C123.609375 138.18402344 123.09375 137.75476563 122.5625 137.3125 C120.55700849 135.64125707 118.73705122 134.00279258 116.9375 132.125 C113.55689746 128.65049184 110.05845775 125.49993174 106.29296875 122.45703125 C105.62201172 121.79767578 105.62201172 121.79767578 104.9375 121.125 C104.9375 120.465 104.9375 119.805 104.9375 119.125 C104.380625 119.063125 103.82375 119.00125 103.25 118.9375 C99.94681958 117.7769231 98.21855267 115.72286554 95.9375 113.125 C95.9375 112.465 95.9375 111.805 95.9375 111.125 C95.215625 110.898125 94.49375 110.67125 93.75 110.4375 C89.04984255 108.24409319 86.18276324 104.42585553 82.9375 100.5 C80.52396523 97.63585643 78.21414139 95.97336181 74.9375 94.125 C71.44244098 90.89879167 68.43058642 87.38090575 65.46484375 83.67578125 C63.75612855 81.94084536 62.12905268 81.15297381 59.9375 80.125 C57.6875 78.125 57.6875 78.125 55.9375 76.125 C55.9375 75.465 55.9375 74.805 55.9375 74.125 C55.31875 74.00125 54.7 73.8775 54.0625 73.75 C51.9375 73.125 51.9375 73.125 49.9375 71.125 C49.9375 70.135 49.9375 69.145 49.9375 68.125 C49.36 68.05152344 48.7825 67.97804688 48.1875 67.90234375 C45.14446726 66.8510182 43.96442488 65.16177354 41.9375 62.6875 C39.41192179 59.61438432 37.5307925 57.79112067 33.9375 56.125 C32.6875 54 32.6875 54 31.9375 52.125 C31.2775 52.125 30.6175 52.125 29.9375 52.125 C28.76195759 50.99879605 27.59431045 49.8632512 26.46679688 48.68896484 C24.76336229 46.94691472 22.99465582 45.29578863 21.203125 43.64453125 C20.54699219 43.03802734 19.89085937 42.43152344 19.21484375 41.80664062 C17.84899453 40.54737502 16.48177783 39.28959123 15.11328125 38.03320312 C14.46230469 37.43056641 13.81132813 36.82792969 13.140625 36.20703125 C12.54926758 35.66280518 11.95791016 35.1185791 11.34863281 34.55786133 C9.9375 33.125 9.9375 33.125 8.9375 31.125 C7.9475 30.795 6.9575 30.465 5.9375 30.125 C4.25 28.75 4.25 28.75 2.9375 27.125 C2.9375 26.135 2.9375 25.145 2.9375 24.125 C2.256875 23.939375 1.57625 23.75375 0.875 23.5625 C-3.26460178 21.53673743 -5.93632925 18.45118641 -9.0625 15.125 C-10.90228058 13.22466968 -12.63437784 11.686117 -14.75 10.0625 C-15.513125 9.423125 -16.27625 8.78375 -17.0625 8.125 C-17.0625 7.465 -17.0625 6.805 -17.0625 6.125 C-17.7225 6.125 -18.3825 6.125 -19.0625 6.125 C-19.0625 5.465 -19.0625 4.805 -19.0625 4.125 C-19.7225 4.125 -20.3825 4.125 -21.0625 4.125 C-21.0625 3.135 -21.0625 2.145 -21.0625 1.125 C-14.07243753 -0.18758997 -7.09155366 -0.02174212 0 0 Z " fill="#007776" transform="translate(55.0625,107.875)"/>
<path d="M0 0 C6.27 0 12.54 0 19 0 C19.66 4.29 20.32 8.58 21 13 C28.92 13.33 36.84 13.66 45 14 C45.04587844 18.23610959 45.08571186 22.47135957 45.10986328 26.70751953 C45.11992963 28.14895547 45.1335838 29.59037095 45.15087891 31.03173828 C45.17510012 33.10193934 45.18647641 35.17187076 45.1953125 37.2421875 C45.21102295 39.11173096 45.21102295 39.11173096 45.22705078 41.01904297 C45 44 45 44 43 46 C39.375 46.125 39.375 46.125 36 46 C38.97 46.33 41.94 46.66 45 47 C45 52.33333333 45 57.66666667 45 63 C45.01160156 63.68835938 45.02320313 64.37671875 45.03515625 65.0859375 C45.04417969 65.84132813 45.05320312 66.59671875 45.0625 67.375 C45.07410156 68.12523437 45.08570313 68.87546875 45.09765625 69.6484375 C45 72 45 72 44.49609375 74.25390625 C43.81450538 78.02679305 43.94063066 81.74528565 44 85.5625 C44.05710639 92.29391538 43.90011124 98.96820386 43.5 105.6875 C42.83101173 117.12226511 42.9036432 128.54984791 43 140 C41.90429688 139.83886719 40.80859375 139.67773438 39.6796875 139.51171875 C34.49415048 138.86609768 29.34489609 138.81613503 24.125 138.8125 C23.17625 138.80025391 22.2275 138.78800781 21.25 138.77539062 C19.89261719 138.77249023 19.89261719 138.77249023 18.5078125 138.76953125 C17.68941895 138.76542236 16.87102539 138.76131348 16.02783203 138.75708008 C13.77263284 138.81537912 13.77263284 138.81537912 12 141 C9.65234375 141.23046875 9.65234375 141.23046875 6.9375 141.1875 C6.03902344 141.18105469 5.14054688 141.17460937 4.21484375 141.16796875 C2 141 2 141 1 140 C0.9016279 138.66956375 0.86921408 137.33406656 0.8671875 136 C0.86589844 135.195625 0.86460937 134.39125 0.86328125 133.5625 C0.86714844 132.716875 0.87101563 131.87125 0.875 131 C0.87113281 130.154375 0.86726562 129.30875 0.86328125 128.4375 C0.86457031 127.633125 0.86585938 126.82875 0.8671875 126 C0.86831543 125.2575 0.86944336 124.515 0.87060547 123.75 C1 122 1 122 2 121 C3.66014616 120.63557767 5.32706064 120.30027117 7 120 C5.35 120 3.7 120 2 120 C1.97494385 119.26475098 1.9498877 118.52950195 1.92407227 117.77197266 C1.8068955 114.38952308 1.68472877 111.00727064 1.5625 107.625 C1.52318359 106.46871094 1.48386719 105.31242187 1.44335938 104.12109375 C1.19577173 97.37909185 0.78053875 90.70209838 0 84 C1.98 83.01 1.98 83.01 4 82 C2.68 81.34 1.36 80.68 0 80 C0 36 0 36 0.5625 32.75 C0.93815754 29.53007823 0.73629485 27.28353482 0.24243164 24.14501953 C-0.2668838 19.63862933 -0.10080386 15.09119432 -0.0625 10.5625 C-0.05798828 9.54478516 -0.05347656 8.52707031 -0.04882812 7.47851562 C-0.03712454 4.98565142 -0.01919192 2.4928178 0 0 Z M8 29 C9.485 29.99 9.485 29.99 11 31 C11.99 30.67 12.98 30.34 14 30 C11.03 29.505 11.03 29.505 8 29 Z M16 29 C16.33 29.99 16.66 30.98 17 32 C17.66 32 18.32 32 19 32 C19.33 31.01 19.66 30.02 20 29 C18.68 29 17.36 29 16 29 Z M3 37 C3 37.33 3 37.66 3 38 C5.31 38.33 7.62 38.66 10 39 C9.67 38.34 9.34 37.68 9 37 C7.02 37 5.04 37 3 37 Z M26 50 C26 51.98 26 53.96 26 56 C26.33 56 26.66 56 27 56 C27 54.02 27 52.04 27 50 C26.67 50 26.34 50 26 50 Z M26 60 C26.33 60.66 26.66 61.32 27 62 C27.33 61.34 27.66 60.68 28 60 C27.34 60 26.68 60 26 60 Z M13 68 C13.66 68.66 14.32 69.32 15 70 C17.22128555 70.02308597 17.22128555 70.02308597 19.625 69.625 C20.44226563 69.51414062 21.25953125 69.40328125 22.1015625 69.2890625 C22.72804688 69.19367188 23.35453125 69.09828125 24 69 C24 68.67 24 68.34 24 68 C20.37 68 16.74 68 13 68 Z M16 73 C17 75 17 75 17 75 Z M30 78 C30.33 78.66 30.66 79.32 31 80 C31.33 79.34 31.66 78.68 32 78 C31.34 78 30.68 78 30 78 Z M26 87 C27 89 27 89 27 89 Z M13 98 C13 98.66 13 99.32 13 100 C12.01 100.495 12.01 100.495 11 101 C14.67410785 102.17571451 18.16929183 102.07366746 22 102 C22.33 101.34 22.66 100.68 23 100 C21.906875 100.04125 20.81375 100.0825 19.6875 100.125 C16 100 16 100 13 98 Z M30 109 C29.67 115.6 29.34 122.2 29 129 C29.66 128.67 30.32 128.34 31 128 C31 122.06 31 116.12 31 110 C32.98 110 34.96 110 37 110 C37 109.67 37 109.34 37 109 C34.69 109 32.38 109 30 109 Z M18 121 C18 121.66 18 122.32 18 123 C17.01 123.495 17.01 123.495 16 124 C17.32 124.33 18.64 124.66 20 125 C20.33 124.01 20.66 123.02 21 122 C20.01 121.67 19.02 121.34 18 121 Z M13 128 C13.33 128.66 13.66 129.32 14 130 C14.33 129.34 14.66 128.68 15 128 C14.34 128 13.68 128 13 128 Z " fill="#155282" transform="translate(236,221)"/>
<path d="M0 0 C14.85530204 0 29.24358736 0.0704622 44 1 C44 7.27 44 13.54 44 20 C43.34 20 42.68 20 42 20 C42 20.66 42 21.32 42 22 C42.66 22 43.32 22 44 22 C44 36.66666667 44 51.33333333 44 66 C43.03707031 66.43505859 43.03707031 66.43505859 42.0546875 66.87890625 C39.84952947 67.8141766 39.84952947 67.8141766 39.125 69.9375 C37.49566405 72.92461591 34.98820476 73.50589762 32 75 C31.30062468 76.31647119 30.63270867 77.65022151 30 79 C28.35857037 80.0409066 26.69287785 81.04504326 25 82 C24.67 82.66 24.34 83.32 24 84 C22.02 84 20.04 84 18 84 C18.33 84.99 18.66 85.98 19 87 C17.71034824 88.37562854 16.37310707 89.70766393 15 91 C14.34 91 13.68 91 13 91 C12.67 91.99 12.34 92.98 12 94 C11.34 94 10.68 94 10 94 C10 94.66 10 95.32 10 96 C6.60876898 99.16001072 4.5156486 100.97472187 0 102 C-0.02886751 97.85418113 -0.04675327 93.70838784 -0.0625 89.5625 C-0.07087891 88.37849609 -0.07925781 87.19449219 -0.08789062 85.97460938 C-0.09111328 84.84990234 -0.09433594 83.72519531 -0.09765625 82.56640625 C-0.10289307 81.52427979 -0.10812988 80.48215332 -0.11352539 79.40844727 C0 77 0 77 1 76 C4.00331018 75.85806663 6.99217134 75.95763622 10 76 C6.7 75.67 3.4 75.34 0 75 C0 50.25 0 25.5 0 0 Z M23 9 C23 11.31 23 13.62 23 16 C23.33 16 23.66 16 24 16 C24 13.69 24 11.38 24 9 C23.67 9 23.34 9 23 9 Z M14 35 C14 35.66 14 36.32 14 37 C14.99 36.67 15.98 36.34 17 36 C16.01 35.67 15.02 35.34 14 35 Z M26 38 C24.81318274 41.56045177 24.90310168 44.43808337 24.9375 48.1875 C24.94652344 49.45980469 24.95554687 50.73210937 24.96484375 52.04296875 C24.97644531 53.01878906 24.98804688 53.99460937 25 55 C25.33 55 25.66 55 26 55 C26.99250545 49.29309366 27.10477512 43.78591511 27 38 C26.67 38 26.34 38 26 38 Z M18 48 C18 50.97 18 53.94 18 57 C18.33 57 18.66 57 19 57 C19 54.03 19 51.06 19 48 C18.67 48 18.34 48 18 48 Z " fill="#450EA8" transform="translate(237,410)"/>
<path d="M0 0 C1.67542976 0.28604898 3.34385343 0.61781233 5 1 C5.33 0.67 5.66 0.34 6 0 C7.83023371 -0.08742257 9.66379704 -0.10697763 11.49609375 -0.09765625 C12.61177734 -0.09443359 13.72746094 -0.09121094 14.87695312 -0.08789062 C16.63942383 -0.07532227 16.63942383 -0.07532227 18.4375 -0.0625 C19.60861328 -0.05798828 20.77972656 -0.05347656 21.98632812 -0.04882812 C24.99092719 -0.03669183 27.99543893 -0.01902547 31 0 C31.66 0 32.32 0 33 0 C45.33333333 0 57.66666667 0 70 0 C70.495 0.99 70.495 0.99 71 2 C70.34 2.99 69.68 3.98 69 5 C68.34 5 67.68 5 67 5 C66.34 6.65 65.68 8.3 65 10 C64.01 10 63.02 10 62 10 C62 9.34 62 8.68 62 8 C61.01 8.33 60.02 8.66 59 9 C59.99 9.99 60.98 10.98 62 12 C60.71937515 13.7074998 59.38232443 15.37373596 58 17 C57.34 17 56.68 17 56 17 C55.814375 17.9590625 55.814375 17.9590625 55.625 18.9375 C55.41875 19.618125 55.2125 20.29875 55 21 C54.01 21.495 54.01 21.495 53 22 C52.505 22.845625 52.01 23.69125 51.5 24.5625 C51.005 25.366875 50.51 26.17125 50 27 C49.34 27 48.68 27 48 27 C48 27.66 48 28.32 48 29 C47.01 29 46.02 29 45 29 C44.67 30.65 44.34 32.3 44 34 C43.34 34 42.68 34 42 34 C41.67 34.99 41.34 35.98 41 37 C40.01 37.495 40.01 37.495 39 38 C38.67 38.99 38.34 39.98 38 41 C37.01 41 36.02 41 35 41 C35 41.66 35 42.32 35 43 C33.04235617 43.19456705 31.08384679 43.38044247 29.125 43.5625 C27.48917969 43.71912109 27.48917969 43.71912109 25.8203125 43.87890625 C23 44 23 44 21 43 C21 39 21 35 21 31 C21.66 31 22.32 31 23 31 C22.67 28.36 22.34 25.72 22 23 C21.11248047 23.01740234 21.11248047 23.01740234 20.20703125 23.03515625 C15.95748849 23.08368284 12.16051422 22.91328361 8 22 C4.67108429 21.6186691 1.33673961 21.30451798 -2 21 C-2.05791844 17.87507749 -2.09356746 14.75029234 -2.125 11.625 C-2.14175781 10.73554687 -2.15851563 9.84609375 -2.17578125 8.9296875 C-2.18222656 8.07890625 -2.18867188 7.228125 -2.1953125 6.3515625 C-2.20578613 5.56604004 -2.21625977 4.78051758 -2.22705078 3.97119141 C-2 2 -2 2 0 0 Z M38 9 C38 12.3 38 15.6 38 19 C38.66 18.34 39.32 17.68 40 17 C40.02375926 15.0068433 40.02375926 15.0068433 39.625 12.875 C39.41875 11.59625 39.2125 10.3175 39 9 C38.67 9 38.34 9 38 9 Z M45 12 C46 14 46 14 46 14 Z M10.25 13.5 C9.26515625 13.5928125 8.2803125 13.685625 7.265625 13.78125 C6.14414062 13.88953125 6.14414062 13.88953125 5 14 C5 14.33 5 14.66 5 15 C6.93719378 15.05406122 8.87481921 15.09282025 10.8125 15.125 C11.89144531 15.14820312 12.97039062 15.17140625 14.08203125 15.1953125 C17.19402868 15.23023717 17.19402868 15.23023717 20 13 C16.68757696 13 13.54069789 13.1866002 10.25 13.5 Z M30 28 C29.67 29.32 29.34 30.64 29 32 C30.65 32 32.3 32 34 32 C32.68 30.68 31.36 29.36 30 28 Z " fill="#1C4A8D" transform="translate(434,61)"/>
<path d="M0 0 C7.56526619 3.97176475 12.18733433 8.31077939 15.5 16.3125 C16.88682503 22.79095409 15.45544122 27.78922172 11.99609375 33.3359375 C8.94504463 37.36682745 5.21358913 40.40893516 0.5 42.3125 C-6.07553087 43.16412542 -12.65024469 43.45803253 -18.5 40 C-24.3181869 35.41070117 -27.7955499 28.96283233 -29.1875 21.75 C-27.75529199 14.58895996 -24.3368333 7.82278028 -18.5 3.3125 C-12.38473622 -0.18358477 -7.02544433 -1.93199719 0 0 Z " fill="#007775" transform="translate(264.5,12.6875)"/>
<path d="M0 0 C2.31 0 4.62 0 7 0 C7.33 8.58 7.66 17.16 8 26 C-0.45625705 26.07687506 -8.59772866 26.0341257 -17 25 C-17.33 21.7 -17.66 18.4 -18 15 C-16.68 14.34 -15.36 13.68 -14 13 C-15.32 12.34 -16.64 11.68 -18 11 C-18.05399736 9.54207116 -18.09279177 8.08357288 -18.125 6.625 C-18.15980469 5.40683594 -18.15980469 5.40683594 -18.1953125 4.1640625 C-18 2 -18 2 -16 0 C-10.28732264 -1.08343881 -5.72447051 -0.8177815 0 0 Z M-2 4 C-1 6 -1 6 -1 6 Z " fill="#164F7F" transform="translate(254,290)"/>
<path d="M0 0 C1.93419584 0.03323361 3.86807794 0.09285999 5.80078125 0.17578125 C7.28288086 0.20961914 7.28288086 0.20961914 8.79492188 0.24414062 C11.23589684 0.30310137 13.67382993 0.38533077 16.11328125 0.48828125 C16.44328125 1.14828125 16.77328125 1.80828125 17.11328125 2.48828125 C16.12328125 3.97328125 16.12328125 3.97328125 15.11328125 5.48828125 C14.45328125 5.48828125 13.79328125 5.48828125 13.11328125 5.48828125 C12.45328125 7.13828125 11.79328125 8.78828125 11.11328125 10.48828125 C10.12328125 10.48828125 9.13328125 10.48828125 8.11328125 10.48828125 C8.11328125 9.82828125 8.11328125 9.16828125 8.11328125 8.48828125 C7.12328125 8.81828125 6.13328125 9.14828125 5.11328125 9.48828125 C6.10328125 10.47828125 7.09328125 11.46828125 8.11328125 12.48828125 C6.8326564 14.19578105 5.49560568 15.86201721 4.11328125 17.48828125 C3.45328125 17.48828125 2.79328125 17.48828125 2.11328125 17.48828125 C1.98953125 18.12765625 1.86578125 18.76703125 1.73828125 19.42578125 C1.53203125 20.10640625 1.32578125 20.78703125 1.11328125 21.48828125 C0.45328125 21.81828125 -0.20671875 22.14828125 -0.88671875 22.48828125 C-1.38171875 23.33390625 -1.87671875 24.17953125 -2.38671875 25.05078125 C-2.88171875 25.85515625 -3.37671875 26.65953125 -3.88671875 27.48828125 C-4.54671875 27.48828125 -5.20671875 27.48828125 -5.88671875 27.48828125 C-5.88671875 28.14828125 -5.88671875 28.80828125 -5.88671875 29.48828125 C-6.87671875 29.48828125 -7.86671875 29.48828125 -8.88671875 29.48828125 C-9.21671875 30.47828125 -9.54671875 31.46828125 -9.88671875 32.48828125 C-9.91375256 30.55085784 -9.93313 28.61332646 -9.94921875 26.67578125 C-9.96082031 25.59683594 -9.97242188 24.51789063 -9.984375 23.40625 C-9.88671875 20.48828125 -9.88671875 20.48828125 -8.88671875 17.48828125 C-8.65625521 14.49225529 -8.50620532 11.49749914 -8.36328125 8.49609375 C-7.41672853 2.52194956 -6.19295062 0.23079319 0 0 Z " fill="#253B90" transform="translate(487.88671875,60.51171875)"/>
<path d="M0 0 C8.25 0 16.5 0 25 0 C27 6 27 6 26 14 C17.09 14 8.18 14 -1 14 C-1 12.35 -1 10.7 -1 9 C-1.33 8.34 -1.66 7.68 -2 7 C-1.34 4.69 -0.68 2.38 0 0 Z " fill="#0B657D" transform="translate(440,61)"/>
<path d="M0 0 C-0.33 3.96 -0.66 7.92 -1 12 C-2.8975 12.226875 -4.795 12.45375 -6.75 12.6875 C-7.81734375 12.81511719 -8.8846875 12.94273437 -9.984375 13.07421875 C-13 13 -13 13 -15.3671875 11.8046875 C-17.41612649 9.54007072 -17.48427524 8.45250311 -17.375 5.4375 C-17.36210937 4.65246094 -17.34921875 3.86742187 -17.3359375 3.05859375 C-17 1 -17 1 -15 -1 C-9.58039701 -1.97730546 -5.07678586 -2.53839293 0 0 Z " fill="#075D6B" transform="translate(253,291)"/>
<path d="M0 0 C2.64 0.33 5.28 0.66 8 1 C8 8.92 8 16.84 8 25 C5.03 24.67 2.06 24.34 -1 24 C-0.67 16.08 -0.34 8.16 0 0 Z " fill="#4311A5" transform="translate(271,336)"/>
<path d="M0 0 C0.66 0.33 1.32 0.66 2 1 C2.08090971 2.62418745 2.13914995 4.24951745 2.1875 5.875 C2.22230469 6.77992188 2.25710937 7.68484375 2.29296875 8.6171875 C2.19628906 9.40351563 2.09960938 10.18984375 2 11 C-1.28262031 13.18841354 -2.31790898 13.24854665 -6.125 13.1875 C-7.45917969 13.17783203 -7.45917969 13.17783203 -8.8203125 13.16796875 C-11 13 -11 13 -12 12 C-12.09854655 10.35659133 -12.12972411 8.7088539 -12.125 7.0625 C-12.12757813 6.16660156 -12.13015625 5.27070313 -12.1328125 4.34765625 C-12 2 -12 2 -11 0 C-6.91113345 -1.36295552 -4.25441935 -0.67530466 0 0 Z " fill="#3516A6" transform="translate(249,349)"/>
<path d="M0 0 C5.28 0 10.56 0 16 0 C16.33 0.66 16.66 1.32 17 2 C16.01 3.485 16.01 3.485 15 5 C14.34 5 13.68 5 13 5 C12.34 6.65 11.68 8.3 11 10 C10.01 10 9.02 10 8 10 C8 9.34 8 8.68 8 8 C3.545 8.495 3.545 8.495 -1 9 C-0.67 6.03 -0.34 3.06 0 0 Z " fill="#1E4392" transform="translate(488,61)"/>
<path d="M0 0 C9.24 0 18.48 0 28 0 C28 0.33 28 0.66 28 1 C18.76 1 9.52 1 0 1 C0 0.67 0 0.34 0 0 Z " fill="#65009A" transform="translate(263,362)"/>
<path d="M0 0 C7.92 0 15.84 0 24 0 C24 0.33 24 0.66 24 1 C16.08 1 8.16 1 0 1 C0 0.67 0 0.34 0 0 Z " fill="#007E7E" transform="translate(184,106)"/>
<path d="M0 0 C4.62 0 9.24 0 14 0 C14 0.33 14 0.66 14 1 C9.38 1 4.76 1 0 1 C0 0.67 0 0.34 0 0 Z " fill="#007F7F" transform="translate(141,106)"/>
<path d="M0 0 C3.96 0 7.92 0 12 0 C12 0.33 12 0.66 12 1 C8.04 1 4.08 1 0 1 C0 0.67 0 0.34 0 0 Z " fill="#005858" transform="translate(158,106)"/>
<path d="M0 0 C2.97 0 5.94 0 9 0 C9 0.33 9 0.66 9 1 C6.03 1 3.06 1 0 1 C0 0.67 0 0.34 0 0 Z " fill="#005D5D" transform="translate(173,106)"/>
<path d="M0 0 C4 1 4 1 4 1 Z " fill="#7F0080" transform="translate(293,362)"/>
<path d="M0 0 C4 1 4 1 4 1 Z " fill="#007F7F" transform="translate(79,106)"/>
<path d="M0 0 C3 1 3 1 3 1 Z " fill="#007F7F" transform="translate(211,106)"/>
<path d="M0 0 C3 1 3 1 3 1 Z " fill="#008080" transform="translate(135,106)"/>
<path d="M0 0 C2 1 2 1 2 1 Z " fill="#006B6B" transform="translate(126,106)"/>
<path d="" fill="#0000FF" transform="translate(0,0)"/>
<path d="" fill="#000000" transform="translate(0,0)"/>
<path d="" fill="#000000" transform="translate(0,0)"/>
<path d="" fill="#0000FF" transform="translate(0,0)"/>
<path d="" fill="#007F7F" transform="translate(0,0)"/>
<path d="" fill="#000000" transform="translate(0,0)"/>
<path d="" fill="#000000" transform="translate(0,0)"/>
<path d="" fill="#000000" transform="translate(0,0)"/>
<path d="" fill="#800080" transform="translate(0,0)"/>
<path d="" fill="#800080" transform="translate(0,0)"/>
<path d="" fill="#000000" transform="translate(0,0)"/>
<path d="" fill="#000000" transform="translate(0,0)"/>
<path d="" fill="#000080" transform="translate(0,0)"/>
<path d="" fill="#000000" transform="translate(0,0)"/>
<path d="" fill="#000084" transform="translate(0,0)"/>
<path d="" fill="#005B5B" transform="translate(0,0)"/>
</svg>
